<?xml version="1.0" encoding="UTF-8"?>
<svg version="1.1" xmlns="http://www.w3.org/2000/svg" width="600" height="600">
<path d="M0 0 C198 0 396 0 600 0 C600 198 600 396 600 600 C402 600 204 600 0 600 C0 402 0 204 0 0 Z " fill="#2DBBE7" transform="translate(0,0)"/>
<path d="M0 0 C198 0 396 0 600 0 C600 198 600 396 600 600 C402 600 204 600 0 600 C0 402 0 204 0 0 Z M62.542319 111.20899153 C60.87306264 114.22970816 60.50540509 115.8656351 60.52012444 119.28534126 C60.51484383 120.33701489 60.50956323 121.38868851 60.50412261 122.47223103 C60.52599504 124.1958929 60.52599504 124.1958929 60.54830933 125.95437622 C60.54786373 127.18003638 60.54741814 128.40569654 60.54695904 129.66849792 C60.54953737 133.06820967 60.56999528 136.46697508 60.597785 139.8665185 C60.62329773 143.53399244 60.62550999 147.20148456 60.63014221 150.86903381 C60.64092836 157.22490537 60.66520514 163.58060878 60.69753647 169.93640518 C60.74768712 179.98771228 60.75877587 190.03888534 60.76394653 200.09030151 C60.76622538 203.53060361 60.76880712 206.97090542 60.7715168 210.4112072 C60.77219031 211.27098647 60.77286382 212.13076573 60.77355774 213.01659892 C60.78187813 222.80242107 60.79947995 232.58822064 60.8203125 242.37402344 C60.822207 243.26848556 60.82410149 244.16294769 60.8260534 245.08451472 C60.85758395 259.57156812 60.91276738 274.05846746 60.97318052 288.5454246 C61.03427848 303.42681131 61.0568671 318.30795034 61.04723656 333.18945873 C61.0427749 342.3639259 61.07011697 351.53719661 61.13865526 360.71141402 C61.18305719 367.00315887 61.19106747 373.29429178 61.17079119 379.58615799 C61.16026043 383.21352593 61.16585019 386.83894779 61.21559715 390.46603203 C61.53375807 414.93587739 61.53375807 414.93587739 55.20071411 421.96798706 C53.4935602 423.34539144 51.7606726 424.69169985 50 426 C48.49677237 427.73288588 47.03232871 429.50086739 45.625 431.3125 C42.15629215 435.60854983 38.60561956 439.81925094 35 444 C29.90040821 449.92025296 24.87555818 455.89261289 20 462 C19.43796875 462.6290625 18.8759375 463.258125 18.296875 463.90625 C15.50652982 468.41114464 16.02733778 473.96098217 17 479 C19.18615189 481.95441198 21.74271182 483.38247294 25 485 C25.69351562 485.38542969 26.38703125 485.77085937 27.1015625 486.16796875 C33.99754252 489.85558741 40.06042641 491.29636288 47.83138657 491.25447559 C48.71326798 491.25768207 49.5951494 491.26088855 50.5037545 491.26419219 C53.46771777 491.2725134 56.43148009 491.26656043 59.39544678 491.26069641 C61.53839573 491.26371613 63.6813436 491.26760471 65.82428956 491.27228898 C71.72026419 491.282601 77.61617824 491.280379 83.51215792 491.27610838 C89.86813805 491.27364694 96.22410337 491.28264813 102.58007812 491.29014587 C115.03546169 491.30291153 127.49082307 491.30469004 139.94621202 491.30234561 C150.06898432 491.30051339 160.19175029 491.30227107 170.31452179 491.30657005 C171.76854974 491.30717245 173.2225777 491.30777365 174.67660566 491.30837366 C176.86766965 491.30928091 179.05873365 491.31018957 181.24979765 491.31110601 C201.62433515 491.31953692 221.99887027 491.32387033 242.37340927 491.31969929 C243.14164833 491.31954291 243.90988738 491.31938654 244.70140641 491.31922542 C248.59518745 491.31841963 252.48896849 491.31757386 256.38274953 491.31671212 C257.15607214 491.31654103 257.92939476 491.31636994 258.72615139 491.31619367 C260.28999859 491.31584702 261.85384578 491.31549849 263.41769298 491.31514808 C287.74755184 491.30979167 312.07737446 491.31771846 336.40722656 491.33618164 C363.74015589 491.35689945 391.07306276 491.36762468 418.40600038 491.36360615 C421.32073863 491.36321081 424.23547689 491.36284926 427.15021515 491.36250877 C428.22674268 491.36237268 428.22674268 491.36237268 429.32501823 491.36223383 C440.15809198 491.36106797 450.99114304 491.36771534 461.82421112 491.37832069 C474.14627892 491.39037142 486.46828724 491.39165495 498.79035684 491.37953053 C505.07809943 491.37363191 511.36574438 491.37256961 517.65348053 491.38453293 C523.40987594 491.39535804 529.16609181 491.39232843 534.92247871 491.37827124 C537.00456301 491.375615 539.08666122 491.37801982 541.1687319 491.38600711 C544.00112032 491.39611825 546.83288524 491.38768664 549.66524887 491.37473011 C550.47152328 491.38203946 551.27779769 491.3893488 552.10850465 491.39687964 C559.75087064 491.32453286 567.17722861 489.43201773 573.8125 485.5625 C574.49957031 485.17191406 575.18664062 484.78132813 575.89453125 484.37890625 C581.02875219 481.26732525 581.02875219 481.26732525 583.875 476.22265625 C584.15809984 469.06553838 582.82414612 464.72613743 578.0625 459.375 C576.54695579 457.73683737 575.01062419 456.12418379 573.453125 454.52587891 C571.3482203 452.31558752 569.46324081 449.94890804 567.5625 447.5625 C563.61215185 442.70759986 559.55022052 437.95789919 555.46362305 433.21801758 C551.47354875 428.57993315 547.58667199 423.86921294 543.7421875 419.109375 C542.02222481 416.95895522 542.02222481 416.95895522 540 415 C539.75094432 412.82733554 539.75094432 412.82733554 539.75225353 410.06704235 C539.74568054 408.49294134 539.74568054 408.49294134 539.73897475 406.88704032 C539.74432008 405.72510116 539.74966542 404.56316201 539.75517273 403.36601257 C539.75177587 401.52501715 539.75177587 401.52501715 539.74831039 399.6468299 C539.74391456 396.22904886 539.7484698 392.81148473 539.756621 389.39372408 C539.76319212 385.71196136 539.75820548 382.03021374 539.75439453 378.34844971 C539.74916438 371.96475392 539.75067265 365.58108846 539.75617027 359.19739342 C539.76437094 349.11015202 539.75316794 339.02297635 539.7389679 328.93574524 C539.73436647 325.48659435 539.72991617 322.03744329 539.72552967 318.58829212 C539.72388246 317.29523731 539.72388246 317.29523731 539.72220197 315.97606018 C539.71002191 306.15827771 539.7024741 296.34049313 539.6965332 286.52270508 C539.69571111 285.17610634 539.69571111 285.17610634 539.69487242 283.80230359 C539.68641243 269.25288465 539.68975126 254.70348421 539.69568755 240.15406515 C539.70130135 225.22534325 539.6877883 210.29671469 539.65813476 195.36802131 C539.64057301 186.15497322 539.63898439 176.94219458 539.65777991 167.72914765 C539.66936928 161.41648761 539.66296503 155.10400967 539.6423107 148.79137333 C539.63096903 145.14712269 539.62786213 141.50334096 539.64648628 137.85910988 C539.66647799 133.91081362 539.64803379 129.96323486 539.6257782 126.01493835 C539.6378157 124.85969136 539.64985319 123.70444437 539.66225547 122.5141899 C539.65005023 121.45696599 539.63784499 120.39974207 539.62526989 119.31048107 C539.62521487 118.39909726 539.62515986 117.48771345 539.62510318 116.54871196 C538.69657103 112.76283935 537.10011438 111.31467967 534 109 C531.15518047 108.50795804 528.91023926 108.32577541 526.07138729 108.3707943 C525.2749692 108.36352709 524.4785511 108.35625989 523.65799913 108.34877247 C520.97838596 108.33046543 518.3001939 108.34790365 515.62059021 108.36508179 C513.68458687 108.35932285 511.74858898 108.35138327 509.81260258 108.34144557 C504.48413561 108.32051798 499.15611475 108.33091433 493.8276459 108.34637666 C488.08455947 108.35766196 482.34155125 108.34024153 476.59848022 108.32647705 C465.34475658 108.3042104 454.0911994 108.30906101 442.83746915 108.32354026 C433.69430106 108.33481845 424.55117972 108.33636955 415.40800667 108.33092117 C414.10819459 108.33015501 412.80838251 108.32938884 411.46918218 108.32859946 C408.82889976 108.32700088 406.18861736 108.32537982 403.54833496 108.3237365 C379.4806873 108.30987605 355.41312731 108.32426501 331.34549389 108.35044949 C309.36545309 108.37418087 287.38555711 108.3720526 265.40551758 108.34814453 C240.72014092 108.32138368 216.03484768 108.31083971 191.34945828 108.32620585 C188.71903139 108.32779865 186.08860448 108.3293705 183.45817757 108.33092117 C182.16384764 108.33169255 180.86951771 108.33246393 179.53596566 108.33325868 C170.39961795 108.3375821 161.26332151 108.33027536 152.12698174 108.31852341 C140.99885806 108.3045245 129.87091081 108.3082435 118.74280744 108.33492713 C113.06130576 108.3481 107.3800986 108.35315857 101.69859886 108.33668137 C96.50301137 108.32184084 91.30799288 108.32987226 86.1124574 108.35656913 C84.22762793 108.36217917 82.34275091 108.3592576 80.45795172 108.34719019 C77.90553102 108.33209512 75.35508708 108.34746219 72.80277157 108.3707943 C71.69202049 108.35323555 71.69202049 108.35323555 70.55882999 108.33532208 C66.91517063 108.40239728 65.28770802 108.74140477 62.542319 111.20899153 Z " fill="#FEFEFE" transform="translate(0,0)"/>
<path d="M0 0 C0.79496465 -0.0072672 1.58992931 -0.01453441 2.4089838 -0.02202183 C5.08968196 -0.04036134 7.76896536 -0.0228756 10.44965458 -0.00571251 C12.38408218 -0.01147018 14.31850433 -0.01940891 16.25291497 -0.02934873 C21.58171046 -0.05029406 26.9100604 -0.03987195 32.23885787 -0.02441764 C37.98061775 -0.01313937 43.72229915 -0.03054935 49.46404362 -0.04431725 C60.71757145 -0.06659233 71.97093288 -0.06172931 83.22446733 -0.04725404 C92.36812748 -0.03597802 101.51174089 -0.0344238 110.655406 -0.03987312 C111.95506485 -0.04063929 113.25472369 -0.04140545 114.59376614 -0.04219484 C117.23372436 -0.04379341 119.87368257 -0.04541447 122.51364077 -0.04705779 C146.58306928 -0.06092087 170.65241016 -0.04652552 194.72182444 -0.02034481 C216.70171158 0.00338129 238.68145389 0.00126334 260.66133976 -0.02264977 C285.34525384 -0.04941484 310.02908449 -0.05995176 334.71301132 -0.04458845 C337.34375257 -0.04299565 339.97449383 -0.0414238 342.6052351 -0.03987312 C343.8997193 -0.03910175 345.19420351 -0.03833037 346.52791451 -0.03753562 C355.66327987 -0.03321307 364.79859395 -0.04051718 373.93395138 -0.05227089 C385.06316861 -0.06627469 396.19220946 -0.06254063 407.32140642 -0.03586717 C413.00302502 -0.02270014 418.68434923 -0.01762582 424.36596584 -0.03411293 C429.56287895 -0.04896572 434.75922363 -0.04090143 439.95608485 -0.01422517 C441.84028908 -0.00862032 443.72454091 -0.01152523 445.60871475 -0.02360411 C448.16270573 -0.03872635 450.71472893 -0.02330386 453.26861572 0 C454.00677528 -0.01170583 454.74493483 -0.02341166 455.50546286 -0.03547221 C459.29733399 0.03407532 461.08644783 0.54647232 464.15508401 2.83819723 C466.39801778 5.90362546 466.81780024 7.17797433 466.80015182 10.91454697 C466.80742347 11.96622059 466.81469512 13.01789421 466.82218713 14.10143673 C466.79594544 15.8250986 466.79594544 15.8250986 466.76917362 17.58358192 C466.77047364 18.80924209 466.77177366 20.03490225 466.77311307 21.29770362 C466.7718973 24.69761577 466.74831472 28.09605742 466.71550906 31.4957242 C466.68567814 35.1631904 466.68492703 38.83067035 466.68105412 42.49823952 C466.67079241 48.85415337 466.6433762 55.20980525 466.60542202 61.56561089 C466.55137787 70.76701345 466.53437037 79.96821381 466.52833561 89.16975997 C466.51845846 104.11429261 466.4936282 119.05875039 466.45235538 134.00322914 C466.44989539 134.89769127 466.44743539 135.79215339 466.44490085 136.71372043 C466.40931498 149.39853291 466.35882504 162.0832427 466.30229435 174.76797698 C466.29633042 176.10694145 466.29633042 176.10694145 466.29024601 177.4729557 C466.28626536 178.36450832 466.2822847 179.25606094 466.27818342 180.1746303 C466.21274366 195.05600321 466.1859519 209.93714958 466.19066221 224.81866443 C466.19201927 233.99315906 466.16097377 243.16641035 466.08792666 252.34061973 C466.04037375 258.63234644 466.02907521 264.92348248 466.04595044 271.2153637 C466.05450086 274.8427473 466.04689366 278.46817179 465.99508953 282.09523773 C465.0114625 299.02569075 465.0114625 299.02569075 471.9955225 313.59719276 C473.70299095 314.9746234 475.43621035 316.32093242 477.19722843 317.6292057 C478.70047846 319.36207216 480.16492692 321.13005197 481.57222843 322.9417057 C485.04093629 327.23775554 488.59160887 331.44845664 492.19722843 335.6292057 C497.29682022 341.54945867 502.32167025 347.5218186 507.19722843 353.6292057 C507.75925968 354.2582682 508.32129093 354.8873307 508.90035343 355.5354557 C511.69069862 360.04035034 511.16989065 365.59018787 510.19722843 370.6292057 C508.01052109 373.58436835 505.45262672 375.00708087 502.19722843 376.6292057 C501.19175968 377.20735023 501.19175968 377.20735023 500.16597843 377.79717445 C492.76775918 381.86325924 485.4339283 382.92864788 477.11974621 382.88647461 C475.79346255 382.89173372 475.79346255 382.89173372 474.44038528 382.89709908 C471.48061792 382.90639538 468.52104808 382.90149431 465.56127262 382.89663124 C463.41659729 382.90036837 461.27192332 382.90497015 459.12725151 382.91036189 C453.23579845 382.92259921 447.34440214 382.92233055 441.45293927 382.91997313 C435.09835544 382.91956516 428.74378986 382.93060218 422.38921452 382.94008827 C409.94079185 382.95670267 397.49238872 382.96222391 385.04395594 382.96331303 C374.92695197 382.96423238 364.80995413 382.96835047 354.69295216 382.97471428 C351.77999716 382.97650938 348.86704215 382.97828901 345.95408714 382.98006403 C345.22990665 382.98050613 344.50572616 382.98094823 343.7596008 382.98140372 C323.39291992 382.99371017 303.02624116 383.00160503 282.65955639 383.00071716 C281.50799585 383.00067043 281.50799585 383.00067043 280.33317147 383.00062275 C276.44217208 383.00045653 272.5511727 383.00025845 268.66017331 383.00005333 C267.88741538 383.00001344 267.11465744 382.99997355 266.3184826 382.99993245 C264.75577874 382.99985158 263.19307487 382.99976798 261.63037101 382.99968167 C237.31360296 382.99845598 212.99689068 383.01347349 188.68013859 383.0408268 C161.35671543 383.07154962 134.03332891 383.08875922 106.70988739 383.08690035 C103.79630367 383.08675109 100.88271996 383.08665368 97.96913624 383.08659172 C97.25174422 383.08656841 96.5343522 383.0865451 95.79522104 383.08652109 C84.25280655 383.08645955 72.7104405 383.09922865 61.16804041 383.11645625 C49.56794889 383.13341189 37.96794405 383.13504398 26.36784519 383.12223761 C20.0841099 383.11569764 13.80055011 383.11562817 7.5168314 383.13294411 C1.76417161 383.14863373 -3.98817292 383.14585298 -9.74082483 383.12837584 C-11.82150495 383.12529694 -13.90220837 383.12897168 -15.98286103 383.14009599 C-35.84694861 383.23926368 -35.84694861 383.23926368 -43.80277157 378.6292057 C-45.33417782 377.82096352 -45.33417782 377.82096352 -46.89652157 376.9963932 C-47.69058407 376.50397133 -48.48464657 376.01154945 -49.30277157 375.5042057 C-50.11745907 375.00662758 -50.93214657 374.50904945 -51.77152157 373.9963932 C-54.47185806 372.17885903 -55.65619146 371.27947047 -56.38480282 368.04717445 C-56.83279952 361.76762751 -56.41769934 357.63058885 -52.32132626 352.62871742 C-50.34561171 350.42442423 -48.32173097 348.27504283 -46.25589657 346.15508461 C-44.15099187 343.94479322 -42.26601238 341.57811374 -40.36527157 339.1917057 C-36.41492342 334.33680556 -32.35299209 329.58710489 -28.26639462 324.84722328 C-24.27632032 320.20913885 -20.38944356 315.49841865 -16.54495907 310.7385807 C-14.80277157 308.6292057 -14.80277157 308.6292057 -12.80277157 306.6292057 C-12.49997738 304.36401696 -12.49997738 304.36401696 -12.55223179 301.69624805 C-12.54473374 300.12214705 -12.54473374 300.12214705 -12.53708422 298.51624602 C-12.54174744 297.35430687 -12.54641065 296.19236771 -12.55121517 294.99521828 C-12.54824503 293.767888 -12.54527489 292.54055771 -12.54221475 291.27603561 C-12.53587577 287.85825833 -12.53849547 284.4406937 -12.54473352 281.02292979 C-12.54925368 277.34116313 -12.54223424 273.6594177 -12.53642941 269.97765541 C-12.52778288 263.59396238 -12.52599153 257.21029706 -12.52837658 250.82659912 C-12.53146879 241.5913117 -12.51985441 232.35608579 -12.50382678 223.12081382 C-12.47784303 208.13118497 -12.45783569 193.14155608 -12.44437313 178.15191078 C-12.44356276 177.25417829 -12.44275239 176.3564458 -12.44191746 175.43150929 C-12.43069711 162.6927592 -12.42541536 149.95401348 -12.42253034 137.21525911 C-12.42232635 136.31843619 -12.42212236 135.42161328 -12.42191219 134.49761391 C-12.42171226 133.6018807 -12.42151232 132.70614749 -12.42130633 131.78327086 C-12.41757535 116.85455628 -12.39850257 101.92590826 -12.36681783 86.99722701 C-12.34788287 77.78421699 -12.34195423 68.5713775 -12.35263501 59.35835335 C-12.35894672 53.04571216 -12.35093454 46.73319337 -12.33158089 40.42057904 C-12.32088118 36.77639157 -12.31677693 33.13250121 -12.33005238 29.48831558 C-12.34429118 25.54009628 -12.32781217 21.59234869 -12.30829525 17.64414406 C-12.31741991 16.48889707 -12.32654456 15.33365008 -12.33594573 14.1433956 C-12.32573153 13.08617169 -12.31551734 12.02894778 -12.30499363 10.93968678 C-12.30455889 10.02830297 -12.30412416 9.11691916 -12.30367625 8.17791766 C-10.89349498 1.00260865 -6.58106969 -0.10403351 0 0 Z M-1.80277157 21.6292057 C-1.80277157 107.0992057 -1.80277157 192.5692057 -1.80277157 280.6292057 C149.33722843 280.6292057 300.47722843 280.6292057 456.19722843 280.6292057 C456.19722843 195.1592057 456.19722843 109.6892057 456.19722843 21.6292057 C305.05722843 21.6292057 153.91722843 21.6292057 -1.80277157 21.6292057 Z " fill="#252525" transform="translate(72.80277156829834,108.37079429626465)"/>
<path d="M0 0 C0.79411041 -0.00436032 1.58822081 -0.00872064 2.40639517 -0.0132131 C5.08989462 -0.0242351 7.77288728 -0.01371524 10.45638371 -0.00342751 C12.39065616 -0.00688133 14.32492666 -0.01164404 16.259193 -0.01760924 C21.59208372 -0.03018679 26.92481435 -0.02391826 32.25770581 -0.01465058 C38.00217081 -0.00788793 43.74660748 -0.01832748 49.49106693 -0.02659035 C60.75171488 -0.03995997 72.01230299 -0.03703552 83.27295332 -0.02835242 C92.42188116 -0.02158862 101.57079218 -0.0206535 110.71972179 -0.02392387 C112.01980485 -0.02438357 113.31988791 -0.02484327 114.65936743 -0.0253169 C117.30013291 -0.02627604 119.94089838 -0.02724868 122.58166385 -0.02823468 C146.66206299 -0.03655379 170.7424306 -0.02791319 194.82282462 -0.01220688 C216.81593463 0.00202891 238.80899253 0.00075815 260.80210209 -0.01358986 C285.4969712 -0.0296465 310.1918103 -0.03597239 334.886684 -0.02675307 C337.51826544 -0.02579738 340.14984689 -0.02485427 342.78142834 -0.02392387 C344.72380819 -0.02322963 344.72380819 -0.02322963 346.70542805 -0.02252137 C355.84674936 -0.01992713 364.98805223 -0.02431185 374.12937069 -0.03136253 C385.26482042 -0.03976215 396.40020669 -0.03752992 407.53564911 -0.0215203 C413.22112415 -0.01361659 418.90649324 -0.01058162 424.59196758 -0.02046776 C429.79120319 -0.02937189 434.99023409 -0.02455282 440.18945099 -0.0085351 C442.07568981 -0.00516905 443.96194574 -0.00692197 445.84817367 -0.01416247 C448.40207376 -0.02321791 450.95526251 -0.0139972 453.50912476 0 C454.25019717 -0.0070235 454.99126959 -0.014047 455.75479874 -0.02128333 C458.78309609 0.01213978 461.03887669 0.24081494 463.77474338 1.5832693 C465.83069392 3.97440375 465.81487181 5.32769141 465.80967426 8.46311283 C465.82161949 10.05054893 465.82161949 10.05054893 465.83380604 11.67005444 C465.82215538 12.83605018 465.81050472 14.00204592 465.79850101 15.20337486 C465.80192509 16.43618187 465.80534916 17.66898888 465.80887699 18.93915367 C465.81435943 22.3745628 465.80176506 25.80906762 465.78177387 29.24436806 C465.76434827 33.00057807 465.77014958 36.75676399 465.77304554 40.51300335 C465.77517514 47.80963197 465.75667729 55.10606424 465.73104022 62.40264236 C465.70228095 70.83980489 465.69906349 79.27684888 465.69590092 87.71407127 C465.67488514 109.99775319 465.61904087 132.28139124 465.56748295 154.56502342 C465.48498295 204.33314842 465.40248295 254.10127342 465.31748295 305.37752342 C308.23748295 305.37752342 151.15748295 305.37752342 -10.68251705 305.37752342 C-10.74439205 255.60939842 -10.80626705 205.84127342 -10.87001705 154.56502342 C-10.89732906 138.825812 -10.92464108 123.08660057 -10.95278072 106.87044334 C-10.96633053 87.71407127 -10.96633053 87.71407127 -10.96884823 78.75833702 C-10.9716536 72.47676819 -10.98269073 66.19527879 -10.99924374 59.91373253 C-11.01828838 52.67600921 -11.02703698 45.43836246 -11.0228519 38.20061387 C-11.02103815 34.49514131 -11.02399001 30.78984006 -11.04016244 27.08439863 C-11.05734333 23.12399145 -11.05153058 19.16381539 -11.0432806 15.20337486 C-11.05201859 14.03737912 -11.06075659 12.87138338 -11.06975937 11.67005444 C-11.06378675 10.61176371 -11.05781414 9.55347298 -11.05166054 8.46311283 C-11.0527997 7.54684767 -11.05393886 6.63058252 -11.05511254 5.68655175 C-10.68251705 3.37752342 -10.68251705 3.37752342 -9.6396029 1.5832693 C-6.59018165 -0.2954562 -3.47389119 -0.03282005 0 0 Z M-1.68251705 21.37752342 C-1.68251705 106.84752342 -1.68251705 192.31752342 -1.68251705 280.37752342 C149.45748295 280.37752342 300.59748295 280.37752342 456.31748295 280.37752342 C456.31748295 194.90752342 456.31748295 109.43752342 456.31748295 21.37752342 C305.17748295 21.37752342 154.03748295 21.37752342 -1.68251705 21.37752342 Z " fill="#1C1C1C" transform="translate(72.68251705169678,108.62247657775879)"/>
<path d="M0 0 C73.26 0 146.52 0 222 0 C218.13446352 4.50979256 214.26117715 8.97056122 210.2514801 13.34654236 C209.70433363 13.94463842 209.15718717 14.54273449 208.5934605 15.15895468 C206.7760482 17.14295651 204.95596385 19.12447318 203.13500977 21.10522461 C202.49380817 21.8030883 201.85260658 22.500952 201.19197464 23.21996307 C188.45187613 37.07076302 175.50258123 50.71741026 162.4689188 64.29187679 C154.19954956 72.91370821 146.00771845 81.58851237 137.97729492 90.43383789 C130.93872099 98.18631563 123.7744928 105.79551955 116.44603962 113.27491385 C111.93492846 117.88901843 107.56652936 122.57330668 103.36586773 127.47281921 C92.66563705 139.2168576 85.83367534 142.79714663 71 152 C47.57 152 24.14 152 0 152 C0 101.84 0 51.68 0 0 Z " fill="#7DE7FF" transform="translate(81,137)"/>
<path d="M0 0 C184.8 0 369.6 0 560 0 C554.32520325 5.67479675 554.32520325 5.67479675 551.1875 7.1875 C550.58292969 7.49042969 549.97835937 7.79335938 549.35546875 8.10546875 C542.81906697 10.58778385 536.84138496 11.29236451 529.92251778 11.25726891 C528.59623412 11.26252802 528.59623412 11.26252802 527.24315685 11.26789337 C524.28338949 11.27718967 521.32381964 11.2722886 518.36404419 11.26742554 C516.21936886 11.27116267 514.07469489 11.27576444 511.93002307 11.28115618 C506.03857001 11.2933935 500.14717371 11.29312485 494.25571084 11.29076743 C487.90112701 11.29035946 481.54656142 11.30139647 475.19198608 11.31088257 C462.74356342 11.32749697 450.29516029 11.33301821 437.84672751 11.33410732 C427.72972353 11.33502668 417.6127257 11.33914476 407.49572372 11.34550858 C404.58276873 11.34730368 401.66981372 11.3490833 398.75685871 11.35085833 C398.03267822 11.35130043 397.30849773 11.35174252 396.56237237 11.35219802 C376.19569149 11.36450447 355.82901273 11.37239933 335.46232796 11.37151146 C334.31076742 11.37146472 334.31076742 11.37146472 333.13594304 11.37141704 C329.24494365 11.37125083 325.35394427 11.37105275 321.46294488 11.37084763 C320.69018695 11.37080774 319.91742901 11.37076785 319.12125417 11.37072675 C317.55855031 11.37064587 315.99584644 11.37056228 314.43314258 11.37047596 C290.11637453 11.36925027 265.79966225 11.38426778 241.48291016 11.41162109 C214.159487 11.44234391 186.83610048 11.45955351 159.51265895 11.45769465 C156.59907524 11.45754539 153.68549153 11.45744798 150.77190781 11.45738602 C150.05451579 11.45736271 149.33712377 11.4573394 148.5979926 11.45731538 C137.05557812 11.45725385 125.51321206 11.47002295 113.97081198 11.48725055 C102.37072046 11.50420619 90.77071561 11.50583827 79.17061676 11.4930319 C72.88688147 11.48649194 66.60332168 11.48642246 60.31960297 11.5037384 C54.56694317 11.51942803 48.81459865 11.51664727 43.06194673 11.49917014 C40.98126661 11.49609124 38.9005632 11.49976598 36.81991054 11.51089029 C16.85823598 11.61054516 16.85823598 11.61054516 9 7 C8.20515107 6.54817647 7.41030215 6.09635295 6.59136689 5.6308378 C1.26163783 2.52327565 1.26163783 2.52327565 0 0 Z " fill="#1C1C1C" transform="translate(20,480)"/>
<path d="M0 0 C1.32 0.99 2.64 1.98 4 3 C6.67557755 3.28804414 9.11586481 3.40293179 11.78994751 3.37752342 C12.98031132 3.38406391 12.98031132 3.38406391 14.19472289 3.39073652 C16.87038359 3.40173882 19.54553393 3.39124772 22.22119141 3.38095093 C24.15220212 3.38440552 26.08321087 3.38916875 28.01421547 3.39513266 C33.33344547 3.40769951 38.65251478 3.4014465 43.97174549 3.39217401 C49.70324119 3.38540706 55.43470859 3.39585302 61.16619873 3.40411377 C72.39930405 3.41747852 83.63234935 3.41456117 94.86545706 3.40587585 C103.99195442 3.39911048 113.11843493 3.3981776 122.24493408 3.4014473 C124.1906924 3.40213684 124.1906924 3.40213684 126.17575896 3.40284032 C128.8106459 3.40379947 131.44553284 3.4047721 134.08041978 3.4057581 C158.10300841 3.41407578 182.12556457 3.40543882 206.14814797 3.38973031 C228.08771517 3.37549301 250.02723013 3.37676687 271.96679688 3.39111328 C296.60417495 3.40716987 321.24152145 3.41349598 345.87890434 3.40427649 C348.50429153 3.40332081 351.12967872 3.4023777 353.75506592 3.4014473 C355.69285713 3.40075306 355.69285713 3.40075306 357.66979563 3.40004479 C366.78908718 3.39745065 375.90836024 3.40183502 385.02764893 3.40888596 C396.13562612 3.41728544 407.2435397 3.41505355 418.35150957 3.39904372 C424.02281479 3.39114008 429.69401378 3.38810495 435.3653183 3.39799118 C440.55156123 3.40689535 445.73759895 3.40207619 450.92382312 3.38605852 C452.80532145 3.38269251 454.68683692 3.38444531 456.56832433 3.39168589 C459.11581739 3.40074149 461.66259736 3.39152048 464.21005249 3.37752342 C465.31882582 3.38805867 465.31882582 3.38805867 466.44999862 3.39880675 C471.06295391 3.34776716 472.08588556 2.93558583 476 0 C476 3.96 476 7.92 476 12 C318.92 12 161.84 12 0 12 C0 8.04 0 4.08 0 0 Z " fill="#000000" transform="translate(62,402)"/>
<path d="M0 0 C1.25087308 0.00368717 2.50174616 0.00737434 3.79052448 0.01117325 C4.48729166 0.00775555 5.18405883 0.00433785 5.90194017 0.00081658 C8.24235828 -0.00578487 10.58163558 0.0162494 12.92194843 0.03808975 C14.59724621 0.03921775 16.27254597 0.03858531 17.9478426 0.03631973 C22.50141115 0.03516978 27.05456018 0.05872437 31.60803103 0.08661556 C36.36461094 0.11158253 41.12119995 0.11396749 45.87783527 0.11871719 C54.88765044 0.13116083 63.89727198 0.16400119 72.90700179 0.20411515 C83.16319715 0.24878972 93.41940163 0.27080904 103.67567003 0.29089689 C124.77585602 0.33273262 145.87586758 0.40311161 166.97590351 0.49219131 C167.97590351 4.49219131 167.97590351 4.49219131 167.97590351 16.49219131 C108.57590351 16.49219131 49.17590351 16.49219131 -12.02409649 16.49219131 C-4.11268381 0.66936596 -4.11268381 0.66936596 0 0 Z " fill="#2C2C2C" transform="translate(153.02409648895264,445.50780868530273)"/>
<path d="M0 0 C7.59 0 15.18 0 23 0 C23 0.99 23 1.98 23 3 C23.99 3 24.98 3 26 3 C26 2.01 26 1.02 26 0 C33.26 0 40.52 0 48 0 C48 0.99 48 1.98 48 3 C48.99 3 49.98 3 51 3 C51 2.01 51 1.02 51 0 C58.59 0 66.18 0 74 0 C74 0.99 74 1.98 74 3 C78.29 3 82.58 3 87 3 C82.05 2.505 82.05 2.505 77 2 C77 1.34 77 0.68 77 0 C84.59 0 92.18 0 100 0 C100 0.99 100 1.98 100 3 C100.99 2.67 101.98 2.34 103 2 C103 1.34 103 0.68 103 0 C115.54 0 128.08 0 141 0 C141 0.66 141 1.32 141 2 C133.08 2 125.16 2 117 2 C117 2.66 117 3.32 117 4 C125.58 4 134.16 4 143 4 C143 4.66 143 5.32 143 6 C131.12 6.495 131.12 6.495 119 7 C127.25 7.33 135.5 7.66 144 8 C144.99 10.97 144.99 10.97 146 14 C136.76 14.33 127.52 14.66 118 15 C118.495 16.98 118.495 16.98 119 19 C108.77 19 98.54 19 88 19 C87.505 15.04 87.505 15.04 87 11 C86.01 11.33 85.02 11.66 84 12 C84 12.66 84 13.32 84 14 C76.08 14 68.16 14 60 14 C60 13.01 60 12.02 60 11 C59.01 11 58.02 11 57 11 C57 11.99 57 12.98 57 14 C49.41 14 41.82 14 34 14 C33.505 12.515 33.505 12.515 33 11 C32.01 11 31.02 11 30 11 C30.33 13.64 30.66 16.28 31 19 C23.08 19 15.16 19 7 19 C7 16.69 7 14.38 7 12 C13.435 11.505 13.435 11.505 20 11 C20.33 9.68 20.66 8.36 21 7 C26.94 7 32.88 7 39 7 C39 5.68 39 4.36 39 3 C38.01 3 37.02 3 36 3 C36 3.99 36 4.98 36 6 C28.41 6 20.82 6 13 6 C13 5.01 13 4.02 13 3 C8.71 2.67 4.42 2.34 0 2 C0 1.34 0 0.68 0 0 Z " fill="#292929" transform="translate(299,422)"/>
<path d="M0 0 C15.84 0 31.68 0 48 0 C41.25001072 7.87498749 41.25001072 7.87498749 37.67871094 11.43481445 C36.88478943 12.22866043 36.09086792 13.02250641 35.27288818 13.84040833 C34.01632416 15.08923042 34.01632416 15.08923042 32.734375 16.36328125 C31.85976624 17.23647507 30.98515747 18.10966888 30.08404541 19.00932312 C27.30838382 21.77942024 24.52925534 24.546009 21.75 27.3125 C19.86667351 29.19024063 17.984142 31.06877584 16.1015625 32.94726562 C11.97604584 37.06297677 7.84834725 41.17648487 3.71868896 45.28804016 C2.47782021 46.52405059 1.23844198 47.76155802 0 49 C0 32.83 0 16.66 0 0 Z " fill="#7CE6FE" transform="translate(81,311)"/>
<path d="M0 0 C6.6 0 13.2 0 20 0 C20 0.99 20 1.98 20 3 C21.32 3 22.64 3 24 3 C23.67 2.01 23.34 1.02 23 0 C29.6 0 36.2 0 43 0 C43.99 2.31 44.98 4.62 46 7 C31.15 7 16.3 7 1 7 C0 2 0 2 0 0 Z " fill="#2A2A2A" transform="translate(448,434)"/>
<path d="M0 0 C6.6 0 13.2 0 20 0 C20.33 1.65 20.66 3.3 21 5 C21.95093297 6.69514137 22.95107762 8.36368108 24 10 C24.67725021 11.32798885 25.34582296 12.66049463 26 14 C22.93372294 14.21665549 19.88272762 14.37459318 16.8125 14.5 C15.94818359 14.56703125 15.08386719 14.6340625 14.19335938 14.703125 C11.58342123 14.7831231 9.51049 14.73122157 7 14 C2.99842783 10.12682682 1.73216128 5.19648383 0 0 Z " fill="#292929" transform="translate(463,418)"/>
<path d="M0 0 C1.03515625 1.99609375 1.03515625 1.99609375 2.0625 4.4375 C2.57490234 5.64212891 2.57490234 5.64212891 3.09765625 6.87109375 C3.39542969 7.57363281 3.69320312 8.27617187 4 9 C4.33 9.66 4.66 10.32 5 11 C1.89632503 11.14515677 -1.20648027 11.23400853 -4.3125 11.3125 C-5.63411133 11.3753418 -5.63411133 11.3753418 -6.98242188 11.43945312 C-9.41443685 11.48568915 -11.61204331 11.4672464 -14 11 C-16.94765532 7.82265726 -17 6.37320403 -17 2 C-17.66 2 -18.32 2 -19 2 C-19 1.34 -19 0.68 -19 0 C-16.20865148 -0.19425873 -13.41716313 -0.38069517 -10.625 -0.5625 C-9.8309375 -0.61857422 -9.036875 -0.67464844 -8.21875 -0.73242188 C-2.2265625 -1.11328125 -2.2265625 -1.11328125 0 0 Z " fill="#2A2A2A" transform="translate(511,430)"/>
<path d="M0 0 C1.06734375 1.32644531 1.06734375 1.32644531 2.15625 2.6796875 C2.919375 3.5665625 3.6825 4.4534375 4.46875 5.3671875 C6.15625 7.6796875 6.15625 7.6796875 6.15625 9.6796875 C3.05257503 9.82484427 -0.05023027 9.91369603 -3.15625 9.9921875 C-4.47786133 10.0550293 -4.47786133 10.0550293 -5.82617188 10.11914062 C-8.25511565 10.16531826 -10.45755894 10.13916908 -12.84375 9.6796875 C-14.82421875 7.53515625 -14.82421875 7.53515625 -15.84375 4.6796875 C-16.235625 3.5865625 -16.6275 2.4934375 -17.03125 1.3671875 C-17.299375 0.4803125 -17.5675 -0.4065625 -17.84375 -1.3203125 C-15.44800039 -1.62467817 -13.05830175 -1.88925563 -10.65625 -2.1328125 C-9.64594727 -2.26719727 -9.64594727 -2.26719727 -8.61523438 -2.40429688 C-4.63243814 -2.77343409 -3.14131346 -2.56310466 0 0 Z " fill="#2A2A2A" transform="translate(531.84375,431.3203125)"/>
<path d="M0 0 C5.61 0 11.22 0 17 0 C17 0.66 17 1.32 17 2 C17.99 2.33 18.98 2.66 20 3 C20.33 2.01 20.66 1.02 21 0 C28.26 0 35.52 0 43 0 C42.67 0.66 42.34 1.32 42 2 C39.45058627 2.31241371 36.99638487 2.51303421 34.4375 2.625 C33.37112305 2.68300781 33.37112305 2.68300781 32.28320312 2.7421875 C30.52257575 2.83671783 28.76132272 2.91945817 27 3 C26.67 3.99 26.34 4.98 26 6 C16.43 6 6.86 6 -3 6 C-3 5.34 -3 4.68 -3 4 C-2.34 3.67 -1.68 3.34 -1 3 C-0.67 2.01 -0.34 1.02 0 0 Z " fill="#2A2A2A" transform="translate(74,422)"/>
<path d="M0 0 C7.59 0 15.18 0 23 0 C22.34 2.31 21.68 4.62 21 7 C13.08 7 5.16 7 -3 7 C-2.01 4.69 -1.02 2.38 0 0 Z " fill="#2A2A2A" transform="translate(146,434)"/>
<path d="M0 0 C5.94 0 11.88 0 18 0 C18.33 1.32 18.66 2.64 19 4 C19.66 4 20.32 4 21 4 C21 4.66 21 5.32 21 6 C14.73 6 8.46 6 2 6 C1.34 4.02 0.68 2.04 0 0 Z " fill="#2A2A2A" transform="translate(443,422)"/>
<path d="M0 0 C11.55 0 23.1 0 35 0 C35.495 1.485 35.495 1.485 36 3 C31.19453321 3.07405295 26.3893971 3.12855497 21.58349609 3.16479492 C19.94802059 3.17989911 18.31258571 3.20038389 16.67724609 3.22631836 C14.32899976 3.26263145 11.98128795 3.27970932 9.6328125 3.29296875 C8.53273361 3.31619453 8.53273361 3.31619453 7.41043091 3.33988953 C5.34814453 3.34057617 5.34814453 3.34057617 2 3 C1.34 2.01 0.68 1.02 0 0 Z " fill="#2B2B2B" transform="translate(487,418)"/>
<path d="M0 0 C11.55 0 23.1 0 35 0 C34.34 0.99 33.68 1.98 33 3 C30.37537756 3.26697888 27.98934067 3.34832984 25.3671875 3.29296875 C24.23943405 3.28660149 24.23943405 3.28660149 23.08889771 3.28010559 C20.68390315 3.2632917 18.27974191 3.22563624 15.875 3.1875 C14.24610584 3.17245659 12.61719856 3.15876758 10.98828125 3.14648438 C6.99186566 3.11337954 2.99607418 3.06158009 -1 3 C-0.67 2.01 -0.34 1.02 0 0 Z " fill="#2B2B2B" transform="translate(77,418)"/>
<path d="M0 0 C2.75236274 -0.16225719 5.49517476 -0.2809328 8.25 -0.375 C9.02730469 -0.42527344 9.80460937 -0.47554688 10.60546875 -0.52734375 C11.35957031 -0.54667969 12.11367188 -0.56601562 12.890625 -0.5859375 C13.58188477 -0.6173584 14.27314453 -0.6487793 14.98535156 -0.68115234 C17 0 17 0 21 6 C15.06 6 9.12 6 3 6 C2.01 4.02 1.02 2.04 0 0 Z " fill="#2A2A2A" transform="translate(487,422)"/>
<path d="M0 0 C2.75236274 -0.16225719 5.49517476 -0.2809328 8.25 -0.375 C9.02730469 -0.42527344 9.80460938 -0.47554688 10.60546875 -0.52734375 C12.88548296 -0.58580565 14.78864035 -0.56911642 17 0 C19.546875 3.0234375 19.546875 3.0234375 21 6 C18.24763726 6.16225719 15.50482524 6.2809328 12.75 6.375 C11.58404297 6.45041016 11.58404297 6.45041016 10.39453125 6.52734375 C8.11451704 6.58580565 6.21135965 6.56911642 4 6 C1.453125 2.9765625 1.453125 2.9765625 0 0 Z " fill="#2A2A2A" transform="translate(508,422)"/>
<path d="M0 0 C10.89 0 21.78 0 33 0 C32.67 0.99 32.34 1.98 32 3 C21.44 3 10.88 3 0 3 C0 2.01 0 1.02 0 0 Z " fill="#2B2B2B" transform="translate(283,418)"/>
<path d="M0 0 C7.26 0 14.52 0 22 0 C22 0.66 22 1.32 22 2 C15.07 2 8.14 2 1 2 C0.67 3.32 0.34 4.64 0 6 C-7.26 6 -14.52 6 -22 6 C-22 5.34 -22 4.68 -22 4 C-11.605 3.505 -11.605 3.505 -1 3 C-0.67 2.01 -0.34 1.02 0 0 Z " fill="#2C2C2C" transform="translate(157,426)"/>
<path d="M0 0 C7.92 0 15.84 0 24 0 C24.33 0.99 24.66 1.98 25 3 C16.75 3 8.5 3 0 3 C0 2.01 0 1.02 0 0 Z " fill="#2C2C2C" transform="translate(421,438)"/>
<path d="M0 0 C7.92 0 15.84 0 24 0 C24 0.99 24 1.98 24 3 C16.08 3 8.16 3 0 3 C0 2.01 0 1.02 0 0 Z " fill="#2C2C2C" transform="translate(360,438)"/>
<path d="M0 0 C7.92 0 15.84 0 24 0 C24 0.99 24 1.98 24 3 C16.08 3 8.16 3 0 3 C0 2.01 0 1.02 0 0 Z " fill="#2C2C2C" transform="translate(333,438)"/>
<path d="M0 0 C7.59 0 15.18 0 23 0 C22.67 0.99 22.34 1.98 22 3 C14.41 3 6.82 3 -1 3 C-0.67 2.01 -0.34 1.02 0 0 Z " fill="#2C2C2C" transform="translate(90,438)"/>
<path d="M0 0 C6.93 0 13.86 0 21 0 C21 0.99 21 1.98 21 3 C14.07 3 7.14 3 0 3 C0 2.01 0 1.02 0 0 Z " fill="#2B2B2B" transform="translate(367,418)"/>
<path d="M0 0 C6.93 0 13.86 0 21 0 C21 0.99 21 1.98 21 3 C14.07 3 7.14 3 0 3 C0 2.01 0 1.02 0 0 Z " fill="#2B2B2B" transform="translate(211,418)"/>
<path d="M0 0 C6.93 0 13.86 0 21 0 C21 0.99 21 1.98 21 3 C14.4 3 7.8 3 1 3 C0.67 2.01 0.34 1.02 0 0 Z " fill="#2B2B2B" transform="translate(391,418)"/>
<path d="M0 0 C6.93 0 13.86 0 21 0 C20.67 0.99 20.34 1.98 20 3 C13.4 3 6.8 3 0 3 C0 2.01 0 1.02 0 0 Z " fill="#2B2B2B" transform="translate(187,418)"/>
<path d="M0 0 C6.6 0 13.2 0 20 0 C20.33 0.99 20.66 1.98 21 3 C14.4 3 7.8 3 1 3 C0.67 2.01 0.34 1.02 0 0 Z " fill="#2B2B2B" transform="translate(439,418)"/>
<path d="M0 0 C6.93 0 13.86 0 21 0 C20.67 0.99 20.34 1.98 20 3 C13.73 3 7.46 3 1 3 C0.67 2.01 0.34 1.02 0 0 Z " fill="#2B2B2B" transform="translate(319,418)"/>
<path d="M0 0 C6.93 0 13.86 0 21 0 C20.67 0.99 20.34 1.98 20 3 C13.73 3 7.46 3 1 3 C0.67 2.01 0.34 1.02 0 0 Z " fill="#2B2B2B" transform="translate(259,418)"/>
<path d="M0 0 C6.6 0 13.2 0 20 0 C19.67 0.99 19.34 1.98 19 3 C12.4 3 5.8 3 -1 3 C-0.67 2.01 -0.34 1.02 0 0 Z " fill="#2B2B2B" transform="translate(164,418)"/>
<path d="M0 0 C6.6 0 13.2 0 20 0 C20 0.99 20 1.98 20 3 C13.73 3 7.46 3 1 3 C0.67 2.01 0.34 1.02 0 0 Z " fill="#2B2B2B" transform="translate(415,418)"/>
<path d="M0 0 C6.6 0 13.2 0 20 0 C20 0.99 20 1.98 20 3 C13.73 3 7.46 3 1 3 C0.67 2.01 0.34 1.02 0 0 Z " fill="#2B2B2B" transform="translate(343,418)"/>
<path d="M0 0 C6.6 0 13.2 0 20 0 C19.67 0.99 19.34 1.98 19 3 C12.73 3 6.46 3 0 3 C0 2.01 0 1.02 0 0 Z " fill="#2B2B2B" transform="translate(236,418)"/>
<path d="M0 0 C6.6 0 13.2 0 20 0 C20 0.66 20 1.32 20 2 C17.65147472 3.17426264 16.26225935 3.11508173 13.6484375 3.09765625 C12.79765625 3.09443359 11.946875 3.09121094 11.0703125 3.08789062 C10.18085937 3.07951172 9.29140625 3.07113281 8.375 3.0625 C7.4778125 3.05798828 6.580625 3.05347656 5.65625 3.04882812 C3.43743352 3.03702591 1.21874982 3.02056155 -1 3 C-0.67 2.01 -0.34 1.02 0 0 Z " fill="#2B2B2B" transform="translate(116,418)"/>
<path d="M0 0 C6.6 0 13.2 0 20 0 C20 0.66 20 1.32 20 2 C17.703463 3.1482685 16.41686833 3.11561175 13.8671875 3.09765625 C13.06152344 3.09443359 12.25585938 3.09121094 11.42578125 3.08789062 C10.58402344 3.07951172 9.74226562 3.07113281 8.875 3.0625 C8.02550781 3.05798828 7.17601562 3.05347656 6.30078125 3.04882812 C4.20049091 3.03702874 2.1002367 3.01909306 0 3 C0 2.01 0 1.02 0 0 Z " fill="#2B2B2B" transform="translate(140,418)"/>
<path d="M0 0 C2.625 0.375 2.625 0.375 5 1 C5.625 3.375 5.625 3.375 6 6 C5.34 6.66 4.68 7.32 4 8 C1.375 7.625 1.375 7.625 -1 7 C-1.625 4.625 -1.625 4.625 -2 2 C-1.34 1.34 -0.68 0.68 0 0 Z " fill="#2D2F32" transform="translate(298,116)"/>
<path d="M0 0 C1.32 0 2.64 0 4 0 C3.67 1.65 3.34 3.3 3 5 C1.68 5 0.36 5 -1 5 C-0.67 3.35 -0.34 1.7 0 0 Z " fill="#1E1E1E" transform="translate(158,428)"/>
<path d="M0 0 C1.32 0 2.64 0 4 0 C3.67 1.65 3.34 3.3 3 5 C1.68 4.34 0.36 3.68 -1 3 C-0.67 2.01 -0.34 1.02 0 0 Z " fill="#1D1D1D" transform="translate(153,425)"/>
</svg>
